<?xml version="1.0" encoding="utf-8"?>
<!-- Generator: Adobe Illustrator 16.0.4, SVG Export Plug-In . SVG Version: 6.00 Build 0)  -->
<!DOCTYPE svg PUBLIC "-//W3C//DTD SVG 1.1//EN" "http://www.w3.org/Graphics/SVG/1.1/DTD/svg11.dtd">
<svg version="1.1" id="logo" xmlns="http://www.w3.org/2000/svg" xmlns:xlink="http://www.w3.org/1999/xlink" x="0px" y="0px"
	 width="255.118px" height="85.04px" viewBox="574.564 1006.09 255.118 85.04"
	 enable-background="new 574.564 1006.09 255.118 85.04" xml:space="preserve">
<g>
	<path d="M669.428,1068.632l-6.037-0.457l-5.633-1.352l-5.047-2.209l-4.274-3.035l-2.521-2.811l-1.782-3.174l-1.06-3.432
		l-0.35-3.588l0.361-3.559l1.078-3.424l1.786-3.173l2.485-2.805l4.172-2.921l5.146-2.213l5.735-1.403l5.938-0.49l6.216,0.419
		l5.572,1.285l4.938,2.192l4.311,3.142l2.482,2.804l1.759,3.167l1.047,3.42l0.346,3.559l-0.361,3.51l-1.073,3.451l-1.764,3.223
		l-2.435,2.82l-4.222,3.049l-5.062,2.207l-5.681,1.344L669.428,1068.632v-1.32v-1.32v-1.32v-1.32l3.206-0.279l3.003-0.826
		l2.713-1.357l2.34-1.865l1.832-2.221l1.285-2.475l0.759-2.738l0.249-3.013l-0.264-2.961l-0.783-2.784l-1.291-2.528l-1.788-2.196
		l-2.332-1.835l-2.729-1.35l-3.014-0.834l-3.187-0.285l-3.194,0.283l-3.02,0.83l-2.732,1.349l-2.334,1.841l-1.78,2.197l-1.287,2.531
		l-0.782,2.785l-0.263,2.956l0.266,2.947l0.785,2.779l1.288,2.527l1.773,2.193l2.333,1.852l2.729,1.355l3.019,0.836l3.2,0.285v1.32
		v1.32v1.32V1068.632L669.428,1068.632L669.428,1068.632z"/>
	<path d="M609.208,1028.607l-6.891,0.65l-6.777,2.074l-5.043,3.537l-2.098,5.745l1.334,4.932l1.279,1.708l2.523,1.948l5.275,1.951
		l4.754,0.832l6.577,0.84l6.441,0.705l4.4,0.691l2.483,0.916l1.397,2.682l-1.337,2.816l-1.671,0.91l-2.617,0.859l-6.427,0.729
		l-6.245-0.693l-4.527-1.174l-3.135-1.434l-3.104-2.73l-0.834-1.584l-0.458-2.371h-2.501h-2.501v7.008v7.006h2.779h2.78v-0.812
		v-1.082l0.251-0.578l0.951-0.1l3.166,1.232l4.966,1.395l3.953,0.752l4.485,0.297l7.053-0.561l4.258-1.033l3.355-1.26l3.361-2.061
		l2.222-2.457l1.377-4.918l-1.17-4.844l-1.737-2.407l-1.696-1.379l-1.906-1.069l-2.087-0.838l-2.337-0.706l-6.134-1.09l-6.309-0.805
		l-5.941-0.619l-5.193-0.886l-1.292-0.719l-0.78-1.77l0.475-1.59l1.418-1.319l4.287-1.483l5.942-0.546l6.785,0.703l5.066,1.612
		l1.435,0.733l1.387,0.947l1.565,1.771l1.213,2.88h2.245h2.245v-6.099v-6.099h-2.507h-2.507v0.708v0.708l-0.348,0.638l-1.017-0.076
		l-6.107-2.3L609.208,1028.607L609.208,1028.607L609.208,1028.607z"/>
	<path d="M719.065,1030.823l24.455,22.07l-0.252-14.859l-2.492-2.762h-4.598v-4.444h20.91v4.444h-4.486l-2.311,2.762l0.379,28.393
		h-7.16l-28.164-25.14l0.006,17.841l2.113,2.852h5.021v4.445h-20.535v-4.445h4.801l1.723-2.953v-20.824l-3.004-2.928h-3.896v-4.451
		H719.065L719.065,1030.823L719.065,1030.823z"/>
	<path d="M780.981,1061.974l1.236-0.078l0.963-0.855l0.096-0.959l0.004-7.025l-0.299-0.617l-13.381-15.192l-3.852-1.972h-4.344
		v-4.447h24.518v4.44h-2.955l-0.555,1.371l8.33,9.973l0.248,0.032l8.52-9.993l-0.727-1.375h-3.033v-4.447h20.096v4.447h-4.488
		l-3.518,1.687l-13.529,15.438l-0.164,0.658v7.021l0.096,0.961l0.963,0.854l1.225,0.078h4.592v4.445h-24.393v-4.445
		L780.981,1061.974L780.981,1061.974z"/>
</g>
</svg>
